<?xml version="1.0" encoding="UTF-8"?>
<svg width="30px" height="20px" viewBox="0 0 30 20" version="1.1" xmlns="http://www.w3.org/2000/svg" xmlns:xlink="http://www.w3.org/1999/xlink">
    <!-- Generator: Sketch 52.6 (67491) - http://www.bohemiancoding.com/sketch -->
    <title>egypt_flag</title>
    <desc>Created with Sketch.</desc>
    <defs>
        <filter x="-6.6%" y="-11.4%" width="113.2%" height="122.7%" filterUnits="objectBoundingBox" id="filter-1">
            <feOffset dx="0" dy="0" in="SourceAlpha" result="shadowOffsetOuter1"></feOffset>
            <feGaussianBlur stdDeviation="0.5" in="shadowOffsetOuter1" result="shadowBlurOuter1"></feGaussianBlur>
            <feColorMatrix values="0 0 0 0 0   0 0 0 0 0   0 0 0 0 0  0 0 0 0.3 0" type="matrix" in="shadowBlurOuter1" result="shadowMatrixOuter1"></feColorMatrix>
            <feMerge>
                <feMergeNode in="shadowMatrixOuter1"></feMergeNode>
                <feMergeNode in="SourceGraphic"></feMergeNode>
            </feMerge>
        </filter>
    </defs>
    <g id="egypt_flag" stroke="none" stroke-width="1" fill="none" fill-rule="evenodd">
        <g id="Group-181" filter="url(#filter-1)" transform="translate(-4.000000, -1.000000)">
            <polygon id="Fill-62" fill="#3B3C3C" points="0.992444444 21.6906667 37.4475556 21.6906667 37.4475556 14.6022222 0.992444444 14.6022222"></polygon>
            <path d="M1.02977778,21.6528889 L37.4102222,21.6528889 L37.4102222,14.6382222 L1.02977778,14.6382222 L1.02977778,21.6528889 Z M37.4857778,21.7266667 L0.955555556,21.7266667 L0.955555556,14.5644444 L37.4857778,14.5644444 L37.4857778,21.7266667 Z" id="Fill-64" fill="#030404"></path>
            <polygon id="Fill-65" fill="#FEFEFE" points="0.992444444 14.6022222 37.4475556 14.6022222 37.4475556 7.51288889 0.992444444 7.51288889"></polygon>
            <path d="M1.02977778,14.5648889 L37.4102222,14.5648889 L37.4102222,7.55066667 L1.02977778,7.55066667 L1.02977778,14.5648889 Z M37.4857778,14.6386667 L0.955555556,14.6386667 L0.955555556,7.47688889 L37.4857778,7.47688889 L37.4857778,14.6386667 Z" id="Fill-66" fill="#FEFEFE"></path>
            <polygon id="Fill-67" fill="#F4576B" points="0.992444444 7.51288889 37.4475556 7.51288889 37.4475556 0.424444444 0.992444444 0.424444444"></polygon>
            <path d="M1.02977778,7.47644444 L37.4102222,7.47644444 L37.4102222,0.461777778 L1.02977778,0.461777778 L1.02977778,7.47644444 Z M37.4857778,7.55022222 L0.955555556,7.55022222 L0.955555556,0.387111111 L37.4857778,0.387111111 L37.4857778,7.55022222 Z" id="Fill-68" fill="#BC1F33"></path>
            <path d="M19.0182222,14.4186222 C19.7146667,14.4186222 20.3813333,14.3630667 20.7724444,14.2541778 C20.9382222,14.2239556 20.9382222,14.1381778 20.9382222,14.0284 C21.1026667,13.9728444 21.0191111,13.7768444 21.1328889,13.7768444 C21.0191111,13.8070667 20.9924444,13.5812889 20.8524444,13.6115111 C20.8524444,13.4168444 20.6573333,13.3915111 20.4915556,13.4470667 C20.1608889,13.5568444 19.5746667,13.5812889 19.0182222,13.5812889 C18.4617778,13.5568444 17.88,13.5568444 17.5453333,13.4470667 C17.3791111,13.3915111 17.184,13.4168444 17.184,13.6115111 C17.0435556,13.5812889 17.0182222,13.8070667 16.9026667,13.7768444 C17.0182222,13.7768444 16.9337778,13.9728444 17.0986667,14.0284 C17.0986667,14.1381778 17.0986667,14.2239556 17.2684444,14.2541778 C17.6546667,14.3630667 18.3213333,14.4186222 19.0182222,14.4186222" id="Fill-69" fill="#FEFEFE"></path>
            <path d="M17.0325333,13.8023111 C17.0387556,13.8205333 17.0432,13.8387556 17.0467556,13.8543111 C17.0600889,13.9134222 17.0703111,13.9463111 17.1192,13.9618667 C17.1480889,13.9716444 17.1676444,13.9978667 17.1676444,14.0280889 C17.1676444,14.1369778 17.1676444,14.1658667 17.2805333,14.1854222 C17.6449778,14.2894222 18.2925333,14.3494222 19.0183111,14.3494222 C19.7432,14.3494222 20.3925333,14.2894222 20.7543111,14.1867556 C20.8689778,14.1658667 20.8689778,14.1369778 20.8689778,14.0280889 C20.8689778,13.9978667 20.8880889,13.9716444 20.9156444,13.9618667 C20.9663111,13.9463111 20.9756444,13.9134222 20.9894222,13.8543111 C20.9943111,13.8374222 20.9983111,13.8205333 21.0049778,13.8023111 C20.9858667,13.7840889 20.9680889,13.7636444 20.9529778,13.7432 C20.9223111,13.7045333 20.9000889,13.6792 20.8783111,13.6792 C20.8565333,13.6814222 20.8307556,13.6792 20.8138667,13.6658667 C20.7978667,13.6525333 20.7832,13.6334222 20.7832,13.6112 C20.7832,13.5809778 20.7832,13.4903111 20.6405333,13.4903111 C20.6005333,13.4903111 20.5569778,13.4978667 20.5138667,13.5125333 C20.2334222,13.6054222 19.7432,13.6512 19.0183111,13.6512 L18.7143111,13.6392 C18.2489778,13.6223111 17.8080889,13.6054222 17.5232,13.5125333 C17.4796444,13.4978667 17.4352,13.4903111 17.3965333,13.4903111 C17.2520889,13.4903111 17.2520889,13.5809778 17.2520889,13.6112 C17.2520889,13.6334222 17.2432,13.6525333 17.2272,13.6658667 C17.2116444,13.6792 17.1898667,13.6849778 17.1694222,13.6792 C17.1320889,13.6814222 17.1152,13.7045333 17.0840889,13.7432 C17.0694222,13.7636444 17.0516444,13.7840889 17.0325333,13.8023111 M19.0183111,14.4885333 C18.2694222,14.4885333 17.6240889,14.4272 17.2489778,14.3209778 C17.0574222,14.2867556 17.0325333,14.1756444 17.0294222,14.0729778 C16.9445333,14.0236444 16.9240889,13.9400889 16.9120889,13.8867556 C16.9080889,13.8747556 16.9040889,13.8565333 16.9005333,13.8472 C16.8938667,13.8458667 16.8885333,13.8445333 16.8885333,13.8445333 C16.8512,13.8352 16.8294222,13.8023111 16.8343111,13.7685333 C16.8383111,13.7334222 16.8685333,13.7080889 16.9027556,13.7080889 C16.9027556,13.7080889 16.9098667,13.7103111 16.9134222,13.7116444 C16.9156444,13.7103111 16.9178667,13.7103111 16.9205333,13.7103111 C16.9316444,13.7094222 16.9600889,13.6765333 16.9747556,13.6587556 C17.0076444,13.6152 17.0516444,13.5583111 17.1214222,13.5436444 C17.1578667,13.3792 17.3552,13.3116444 17.5658667,13.3805333 C17.8334222,13.4676444 18.2636444,13.4845333 18.7200889,13.5000889 L19.0209778,13.5125333 C19.7280889,13.5125333 20.2040889,13.4698667 20.4703111,13.3805333 C20.6849778,13.3094222 20.8823111,13.3818667 20.9156444,13.5512 C20.9925333,13.5703111 21.0325333,13.6196444 21.0614222,13.6587556 C21.0747556,13.6743111 21.0996444,13.7067556 21.1103111,13.7103111 C21.1200889,13.7094222 21.1294222,13.7080889 21.1294222,13.7080889 C21.1676444,13.7080889 21.1969778,13.7334222 21.2023111,13.7685333 C21.2067556,13.8023111 21.1854222,13.8352 21.1512,13.8445333 C21.1512,13.8445333 21.1440889,13.8432 21.1392,13.8432 C21.1378667,13.8445333 21.1352,13.8458667 21.1352,13.8458667 L21.1329778,13.8458667 L21.1312,13.8458667 C21.1343111,13.8480889 21.1285333,13.8712 21.1249778,13.8867556 C21.1120889,13.9400889 21.0920889,14.0236444 21.0063111,14.0729778 C21.0036444,14.1756444 20.9787556,14.2858667 20.7854222,14.3218667 C20.4125333,14.4272 19.7658667,14.4885333 19.0183111,14.4885333" id="Fill-70" fill="#EFC626"></path>
            <path d="M17.4340444,13.7224444 C17.3789333,13.7224444 17.3789333,13.7513333 17.4340444,13.7513333 C17.4589333,13.7513333 17.4589333,13.7224444 17.4340444,13.7224444" id="Fill-71" fill="#F3D035"></path>
            <path d="M17.4340444,13.7901333 C17.3602667,13.7901333 17.3562667,13.7452444 17.3562667,13.7368 C17.3562667,13.7056889 17.4024889,13.6839111 17.4340444,13.6839111 C17.4553778,13.6839111 17.4900444,13.7163556 17.4900444,13.7368 C17.4900444,13.7576889 17.4553778,13.7901333 17.4340444,13.7901333" id="Fill-72" fill="#EFC626"></path>
            <path d="M17.4340444,13.6113333 C17.4042667,13.6113333 17.4042667,13.6668889 17.4340444,13.6668889 C17.4896,13.6668889 17.4896,13.6113333 17.4340444,13.6113333" id="Fill-73" fill="#F3D035"></path>
            <path d="M17.4340444,13.7044444 C17.4140444,13.7044444 17.3744889,13.6595556 17.3744889,13.6395556 C17.3744889,13.62 17.4140444,13.5751111 17.4340444,13.5751111 C17.4860444,13.5751111 17.5127111,13.608 17.5127111,13.6395556 C17.5127111,13.6715556 17.4860444,13.7044444 17.4340444,13.7044444" id="Fill-74" fill="#EFC626"></path>
            <path d="M17.4340444,14.0282222 C17.4042667,14.0282222 17.4042667,14.0837778 17.4340444,14.0837778 C17.4589333,14.0837778 17.4589333,14.0282222 17.4340444,14.0282222" id="Fill-75" fill="#F3D035"></path>
            <path d="M17.4340444,14.1202222 C17.4140444,14.1202222 17.3744889,14.0753333 17.3744889,14.0548889 C17.3744889,14.0357778 17.4140444,13.9908889 17.4340444,13.9908889 C17.4553778,13.9908889 17.4900444,14.0357778 17.4900444,14.0548889 C17.4900444,14.0753333 17.4553778,14.1202222 17.4340444,14.1202222" id="Fill-76" fill="#EFC626"></path>
            <path d="M17.5451556,14.0572889 C17.4896,14.0572889 17.4896,14.1128444 17.5451556,14.1128444 C17.5744889,14.1128444 17.5744889,14.0572889 17.5451556,14.0572889" id="Fill-77" fill="#F3D035"></path>
            <path d="M17.5451556,14.1504 C17.4927111,14.1504 17.4651556,14.1175111 17.4651556,14.0850667 C17.4651556,14.0512889 17.5100444,14.0210667 17.5451556,14.0210667 C17.5638222,14.0210667 17.6051556,14.0659556 17.6051556,14.0850667 C17.6051556,14.1152889 17.5731556,14.1504 17.5451556,14.1504" id="Fill-78" fill="#EFC626"></path>
            <path d="M17.6545333,14.0837778 C17.6296444,14.0837778 17.6296444,14.1384444 17.6545333,14.1384444 C17.7100889,14.1384444 17.7100889,14.0837778 17.6545333,14.0837778" id="Fill-79" fill="#F3D035"></path>
            <path d="M17.6545333,14.1744889 C17.6340889,14.1744889 17.5989778,14.1309333 17.5989778,14.1104889 C17.5989778,14.0900444 17.6340889,14.0451556 17.6545333,14.0451556 C17.7065333,14.0451556 17.7323111,14.0776 17.7323111,14.1104889 C17.7323111,14.1420444 17.7065333,14.1744889 17.6545333,14.1744889" id="Fill-80" fill="#EFC626"></path>
            <path d="M19.3788889,13.8070667 C19.3531111,13.8070667 19.3531111,13.8626222 19.3788889,13.8626222 C19.4091111,13.8626222 19.4091111,13.8070667 19.3788889,13.8070667" id="Fill-81" fill="#F3D035"></path>
            <path d="M19.3788889,13.8990667 C19.3593333,13.8990667 19.3228889,13.8555111 19.3228889,13.8350667 C19.3228889,13.8146222 19.3593333,13.7697333 19.3788889,13.7697333 C19.3997778,13.7697333 19.4388889,13.8146222 19.4388889,13.8350667 C19.4388889,13.8555111 19.3997778,13.8990667 19.3788889,13.8990667" id="Fill-82" fill="#EFC626"></path>
            <path d="M19.4092889,13.9171111 C19.3550667,13.9171111 19.3550667,13.9424444 19.4092889,13.9424444 C19.4341778,13.9424444 19.4341778,13.9171111 19.4092889,13.9171111" id="Fill-83" fill="#F3D035"></path>
            <path d="M19.4896,14.1927111 C19.4633778,14.1927111 19.4633778,14.2540444 19.4896,14.2540444 C19.5193778,14.2540444 19.5193778,14.1927111 19.4896,14.1927111" id="Fill-84" fill="#F3D035"></path>
            <path d="M19.4896,14.2905778 C19.4687111,14.2905778 19.4340444,14.2434667 19.4340444,14.2230222 C19.4340444,14.2034667 19.4687111,14.1563556 19.4896,14.1563556 C19.5100444,14.1563556 19.5500444,14.2034667 19.5500444,14.2230222 C19.5500444,14.2434667 19.5100444,14.2905778 19.4896,14.2905778" id="Fill-85" fill="#EFC626"></path>
            <path d="M19.6041778,14.1927111 C19.5441778,14.1927111 19.5441778,14.2540444 19.6041778,14.2540444 C19.6299556,14.2540444 19.6299556,14.1927111 19.6041778,14.1927111" id="Fill-86" fill="#F3D035"></path>
            <path d="M19.6041778,14.2905778 C19.5504,14.2905778 19.5219556,14.2568 19.5219556,14.2230222 C19.5219556,14.1888 19.5504,14.1563556 19.6041778,14.1563556 C19.6246222,14.1563556 19.6615111,14.2034667 19.6615111,14.2230222 C19.6615111,14.2532444 19.6339556,14.2905778 19.6041778,14.2905778" id="Fill-87" fill="#EFC626"></path>
            <path d="M20.7430667,13.9726667 C20.6870667,13.9726667 20.6870667,14.0028889 20.7430667,14.0028889 C20.7724,14.0028889 20.7724,13.9726667 20.7430667,13.9726667" id="Fill-88" fill="#F3D035"></path>
            <path d="M20.7430667,14.0390667 C20.6675111,14.0390667 20.6639556,13.9955111 20.6639556,13.9870667 C20.6639556,13.9559556 20.7115111,13.9355111 20.7430667,13.9355111 C20.7635111,13.9355111 20.8026222,13.9666222 20.8026222,13.9870667 C20.8026222,14.0075111 20.7635111,14.0390667 20.7430667,14.0390667" id="Fill-89" fill="#EFC626"></path>
            <path d="M17.7348,14.0755111 C17.7103556,14.0755111 17.6885778,14.0692889 17.6712444,14.0630667 C17.6423556,14.0559556 17.6103556,14.0466222 17.5894667,14.0257333 C17.5636889,14.0284 17.5392444,14.0208444 17.5019111,14.0075111 C17.4765778,14.0101778 17.4214667,13.9644 17.4214667,13.8870667 C17.4490222,13.8301778 17.4685778,13.7524 17.4894667,13.6715111 L17.5085778,13.6017333 C17.5139111,13.5826222 17.5316889,13.5701778 17.5539111,13.5759556 C17.5734667,13.5812889 17.5845778,13.6017333 17.5801333,13.6221778 L17.5610222,13.6897333 C17.5383556,13.7804 17.5179111,13.8577333 17.4912444,13.9052889 C17.4961333,13.9195111 17.5099111,13.9341778 17.5156889,13.9364 C17.5392444,13.9426222 17.5588,13.9484 17.5694667,13.9519556 C17.5730222,13.9355111 17.5783556,13.9181778 17.5859111,13.8990667 C17.5925778,13.8457333 17.6041333,13.8204 17.6245778,13.8119556 C17.6299111,13.8168444 17.6392444,13.8337333 17.6485778,13.8519556 L17.6690222,13.8661778 C17.6690222,13.8675111 17.6668,13.8799556 17.6636889,13.8928444 C17.6641333,13.8964 17.6641333,13.8999556 17.6636889,13.9026222 C17.6561333,13.9341778 17.6499111,13.9568444 17.6423556,13.9750667 C17.6468,13.9772889 17.6579111,13.9835111 17.6925778,13.9919556 C17.7134667,13.9995111 17.7348,14.0066222 17.7459111,13.9995111 C17.7596889,13.9928444 17.7721333,13.9617333 17.7832444,13.9097333 L17.7952444,13.9172889 L17.7556889,13.8737333 C17.7641333,13.8590667 17.7961333,13.8457333 17.8134667,13.8492889 C17.8299111,13.8541778 17.8565778,13.9012889 17.8565778,13.9172889 C17.8428,13.9835111 17.8245778,14.0404 17.7810222,14.0648444 C17.7659111,14.0728444 17.7494667,14.0755111 17.7348,14.0755111" id="Fill-90" fill="#EFC626"></path>
            <path d="M17.5147556,14.0101778 C17.5147556,14.0101778 17.5076444,14.0101778 17.5040889,14.0088444 C17.4205333,13.9861778 17.3672,13.9386222 17.3680889,13.8879556 C17.3689778,13.8564 17.3889778,13.8155111 17.4818667,13.7964 C17.5027556,13.7937333 17.5218667,13.8048444 17.5254222,13.8252889 C17.5298667,13.8444 17.5178667,13.8639556 17.4960889,13.8688444 C17.4498667,13.8786222 17.4427556,13.8915111 17.4427556,13.8915111 C17.4436444,13.8977333 17.4694222,13.9217333 17.5240889,13.9364 C17.5449778,13.9426222 17.5565333,13.9630667 17.5498667,13.9821778 C17.5449778,13.9981778 17.5303111,14.0101778 17.5147556,14.0101778" id="Fill-91" fill="#EFC626"></path>
            <path d="M18.3176889,14.2348 C18.3008,14.2348 18.2763556,14.2263556 18.2670222,14.2165778 C18.2608,14.2299111 18.2039111,14.2143556 18.2039111,14.1130222 C18.1896889,14.1130222 18.1599111,14.1045778 18.1412444,14.0899111 C18.0692444,14.1201333 17.9896889,14.1272444 17.9385778,14.1090222 C17.9208,14.1370222 17.8954667,14.1574667 17.8656889,14.1721333 C17.8461333,14.1792444 17.8256889,14.1721333 17.8163556,14.1539111 C17.8083556,14.1343556 17.8163556,14.1130222 17.8354667,14.1045778 C17.8545778,14.0961333 17.8705778,14.0801333 17.8816889,14.0632444 C17.8728,14.0454667 17.8670222,14.0259111 17.8670222,14.0028 C17.8594667,13.9894667 17.8501333,13.9508 17.8688,13.9268 C17.9328,13.9148 17.9523556,13.9401333 17.9701333,13.9894667 C17.9701333,14.0076889 17.9688,14.0245778 17.9661333,14.0392444 C17.9874667,14.0485778 18.0314667,14.0485778 18.0785778,14.0343556 C18.0443556,13.9979111 18.0434667,13.9472444 18.0603556,13.9108 C18.0852444,13.8601333 18.1412444,13.8361333 18.1972444,13.8516889 C18.2425778,13.8761333 18.2656889,13.9183556 18.2639111,13.9628 C18.2634667,14.0019111 18.2439111,14.0343556 18.2154667,14.0548 C18.2283556,14.0632444 18.2425778,14.0716889 18.2585778,14.0801333 C18.2776889,14.1565778 18.2865778,14.1565778 18.2963556,14.1565778 C18.3128,14.1565778 18.3399111,14.1081333 18.3399111,14.0574667 L18.3399111,13.8072444 C18.3399111,13.7659111 18.4132444,13.7659111 18.4132444,13.8072444 L18.4132444,14.0574667 C18.4132444,14.1263556 18.3772444,14.2156889 18.3274667,14.2339111 C18.3274667,14.2339111 18.3212444,14.2348 18.3176889,14.2348" id="Fill-92" fill="#EFC626"></path>
            <path d="M18.4618222,14.1504 C18.4409333,14.1504 18.4244889,14.1330667 18.4244889,14.1130667 C18.4244889,14.0695111 18.4329333,14.0090667 18.4404889,13.9508444 C18.4484889,13.8979556 18.4542667,13.8459556 18.4542667,13.8072889 C18.4542667,13.7659556 18.5289333,13.7659556 18.5289333,13.8072889 C18.5289333,13.8481778 18.5209333,13.9050667 18.5138222,13.9606222 C18.5062667,14.0161778 18.5000444,14.0717333 18.5000444,14.1130667 C18.5000444,14.1330667 18.4822667,14.1504 18.4618222,14.1504" id="Fill-93" fill="#EFC626"></path>
            <path d="M18.9626477,14.2987111 L19.1419367,14.2987111 C19.3028732,14.2987111 19.3296959,14.4287111 19.3296959,14.5057111 C19.3296959,14.5057111 19.3762828,14.3797111 19.3776945,14.3777111 C19.3875766,14.3177111 19.3889883,14.2747111 19.3875766,14.2417111 C19.2824032,14.2927111 19.104526,14.2657111 19.0268812,14.2057111 C19.0120581,14.2087111 18.9922939,14.2137111 18.9718239,14.2117111 C18.9718239,14.2417111 18.9675888,14.2707111 18.9626477,14.2987111 M18.5680709,14.7827111 C18.5504244,14.7827111 18.5341896,14.7687111 18.5221899,14.7497111 C18.5031316,14.7117111 18.5073668,14.6597111 18.5334837,14.6327111 C18.6203047,14.5347111 18.6577154,14.4647111 18.6739502,14.3957111 C18.6478333,14.3717111 18.6273633,14.3397111 18.6097168,14.3117111 C18.577953,14.2307111 18.5765413,14.1597111 18.5991289,14.1127111 C18.6125402,14.0887111 18.6591271,14.0617111 18.6831264,14.0617111 C18.7297133,14.0677111 18.7706533,14.1297111 18.7974761,14.2307111 C18.7988878,14.2527111 18.8002995,14.2747111 18.7988878,14.2957111 C18.8094757,14.2987111 18.8207695,14.2987111 18.8306516,14.2987111 C18.8306516,14.2987111 18.8511216,14.2787111 18.8581802,14.1737111 C18.8341809,14.1537111 18.8207695,14.1217111 18.8207695,14.0777111 C18.8207695,14.0317111 18.8666505,13.9427111 18.8984143,13.9427111 C18.9259429,13.9427111 18.9605302,14.0027111 18.9718239,14.0487111 C18.9915881,14.0487111 19.0169991,14.0507111 19.0537039,14.0507111 C19.1518187,14.1127111 19.3304018,14.1107111 19.3621656,14.0757111 C19.4708683,14.0487111 19.5103966,14.1487111 19.5103966,14.3257111 C19.5103966,14.3397111 19.4863973,14.4447111 19.4807504,14.4567111 C19.4511042,14.5647111 19.4256931,14.6497111 19.3678125,14.6657111 C19.3092259,14.6737111 19.2654625,14.6167111 19.2266401,14.5647111 C19.2111111,14.4837111 19.2111111,14.4647111 19.1419367,14.4647111 L18.8306516,14.4647111 C18.8144167,14.4647111 18.7974761,14.4647111 18.7805354,14.4587111 C18.7600654,14.5507111 18.710655,14.6497111 18.6040699,14.7637111 C18.5948937,14.7747111 18.582894,14.7827111 18.5680709,14.7827111" id="Fill-94" fill="#EFC626"></path>
            <path d="M19.2144,14.1744889 C19.2059556,14.1744889 19.1984,14.1722667 19.1912889,14.1673778 C19.1681778,14.1624889 19.1508444,14.1673778 19.1392889,14.1696 C19.1184,14.1696 19.0841778,14.1562667 19.0841778,14.1358222 C19.0841778,14.1153778 19.0837333,14.1007111 19.1041778,14.1007111 L19.1041778,14.1380444 L19.1241778,14.0971556 C19.1361778,14.0949333 19.1490667,14.0922667 19.1650667,14.0900444 C19.1615111,14.0513778 19.1770667,14.0269333 19.1895111,14.0149333 C19.2135111,13.9909333 19.2490667,13.9847111 19.2801778,13.9980444 C19.3152889,14.0127111 19.3357333,14.0451556 19.3357333,14.0838222 C19.3357333,14.1420444 19.2517333,14.1744889 19.2148444,14.1744889 L19.2144,14.1744889 Z" id="Fill-95" fill="#EFC626"></path>
            <path d="M19.4379556,14.1684 C19.4264,14.1684 19.4152889,14.1661778 19.4068444,14.1621778 C19.3935111,14.1577333 19.3726222,14.1275111 19.3726222,14.1128444 C19.4024,14.0648444 19.4388444,14.0426222 19.4712889,14.0368444 C19.4797333,13.9772889 19.4744,13.8928444 19.4544,13.8168444 C19.4477333,13.7972889 19.4601778,13.7768444 19.4801778,13.7719556 C19.5019556,13.7661778 19.5210667,13.7781778 19.5255111,13.7972889 C19.5468444,13.8737333 19.5566222,13.9764 19.5441778,14.0550667 C19.5530667,14.0550667 19.5988444,14.0755111 19.6041778,14.0755111 C19.6317333,14.0728444 19.6437333,14.0630667 19.6468444,14.0137333 C19.6299556,13.9910667 19.6112889,13.9546222 19.6157333,13.9426222 C19.6237333,13.9266222 19.6530667,13.9124 19.6730667,13.9172889 C19.6908444,13.9208444 19.7224,13.9546222 19.7224,13.9728444 L19.7224,13.9981778 L19.7224,14.0101778 C19.7170667,14.1190667 19.6877333,14.1501778 19.6041778,14.1501778 C19.5659556,14.1684 19.5335111,14.1586222 19.5148444,14.1479556 C19.5139556,14.1457333 19.5117333,14.1439556 19.5099556,14.1417333 C19.4877333,14.1599556 19.4619556,14.1684 19.4379556,14.1684" id="Fill-96" fill="#EFC626"></path>
            <path d="M19.7695111,14.2604 C19.7610667,14.2604 19.7521778,14.2568444 19.7441778,14.2492889 C19.7299556,14.2359556 19.7299556,14.2119556 19.7441778,14.1972889 C19.7695111,14.1719556 19.7926222,14.1359556 19.8068444,14.1021778 C19.7428444,14.0657333 19.7339556,14.0248444 19.7339556,14.0026222 C19.7339556,13.9870667 19.7339556,13.9386222 19.7708444,13.9244 C19.8099556,13.9110667 19.8441778,13.9412889 19.8775111,13.9772889 C19.9228444,14.0595111 19.8584,14.1866222 19.7970667,14.2492889 C19.7895111,14.2568444 19.7801778,14.2604 19.7695111,14.2604" id="Fill-97" fill="#EFC626"></path>
            <path d="M19.9661333,14.2059556 C19.9510222,14.2059556 19.9372444,14.1961778 19.9305778,14.1819556 C19.9239111,14.1624 19.9341333,14.1406222 19.9523556,14.1330667 C19.9803556,14.1237333 19.9941333,14.1117333 20.0008,14.0948444 C19.9421333,14.0984 19.9208,14.0695111 19.9141333,14.0428444 C19.9043556,14.0064 19.9288,13.9646222 19.9732444,13.9401778 C19.9825778,13.9339556 20.0261333,13.9246222 20.0354667,13.9281778 C20.0634667,13.9401778 20.0816889,13.9726222 20.0821333,14.0184 C20.1856889,14.0041778 20.3199111,13.9704 20.4176889,13.9108444 C20.4341333,13.8992889 20.4568,13.9050667 20.4688,13.9228444 C20.4790222,13.9410667 20.4732444,13.9628444 20.4559111,13.9752889 C20.3363556,14.0464 20.1883556,14.0775111 20.0799111,14.0899556 C20.0719111,14.1330667 20.0488,14.1770667 19.9785778,14.2032889 C19.9745778,14.2046222 19.9701333,14.2059556 19.9661333,14.2059556" id="Fill-98" fill="#EFC626"></path>
            <path d="M20.2994667,14.1009333 C20.2856889,14.1009333 20.2701333,14.0982667 20.2554667,14.0920444 C20.2345778,14.0609333 20.2203556,14.0249333 20.2079111,13.9849333 C20.1994667,14.0004889 20.1981333,14.0164889 20.1981333,14.0280444 C20.1981333,14.0693778 20.1239111,14.0693778 20.1239111,14.0280444 C20.1239111,13.9680444 20.1470222,13.9209333 20.1834667,13.8964889 C20.1821333,13.8907111 20.1803556,13.8818222 20.1790222,13.8747111 L20.1510222,13.7622667 C20.1448,13.7431556 20.1568,13.7222667 20.1768,13.7164889 C20.1985778,13.7107111 20.2168,13.7222667 20.2230222,13.7431556 L20.2510222,13.8578222 C20.2514667,13.8613778 20.2532444,13.8662667 20.2536889,13.8698222 C20.2692444,13.8662667 20.2950222,13.8676 20.3199111,13.8787111 C20.3621333,13.8956 20.3892444,13.9316 20.3892444,13.9724889 C20.4052444,13.9929333 20.4008,14.0391556 20.3710222,14.0693778 C20.3523556,14.0902667 20.3261333,14.1009333 20.2994667,14.1009333" id="Fill-99" fill="#EFC626"></path>
            <path d="M20.5047556,14.0221333 C20.4558667,14.0221333 20.4163111,13.9981333 20.4025333,13.9545778 C20.3985333,13.9448 20.3989778,13.9003556 20.4052,13.8905778 C20.4496444,13.8168 20.5785333,13.8105778 20.6283111,13.8616889 C20.6483111,13.9061333 20.6434222,13.9363556 20.6247556,13.9643556 C20.5994222,13.9981333 20.5523111,14.0221333 20.5047556,14.0221333" id="Fill-100" fill="#EFC626"></path>
            <path d="M20.7360889,13.9279556 C20.7174222,13.9279556 20.7032,13.9230667 20.6907556,13.9172889 C20.6285333,13.8844 20.5956444,13.7986222 20.5956444,13.6670667 C20.5956444,13.6404 20.5872,13.6221778 20.5712,13.6159556 C20.5480889,13.6066222 20.5138667,13.6172889 20.4938667,13.6381778 C20.4800889,13.6524 20.4556444,13.6524 20.4409778,13.6381778 C20.4267556,13.6235111 20.4267556,13.6004 20.4409778,13.5857333 C20.4832,13.5426222 20.5489778,13.5257333 20.5992,13.5475111 C20.6445333,13.5666222 20.6694222,13.6088444 20.6694222,13.6670667 C20.6694222,13.7817333 20.6987556,13.8372889 20.7258667,13.8519556 C20.7360889,13.8564 20.7485333,13.8577333 20.7623111,13.8541778 C20.7623111,13.8519556 20.7636444,13.8479556 20.7649778,13.8448444 C20.7734222,13.8301778 20.8134222,13.7866222 20.8325333,13.7937333 C20.8480889,13.7986222 20.8645333,13.8457333 20.8645333,13.8626222 C20.8094222,13.9132889 20.7672,13.9279556 20.7360889,13.9279556" id="Fill-101" fill="#EFC626"></path>
            <path d="M19.0468889,11.2248444 L21.4388889,13.4470667 L21.2691111,9.4124 C21.2428889,8.80084444 20.7113333,8.94128889 20.3268889,9.16084444 C19.9357778,9.4124 19.4895556,9.4124 19.0184444,9.24662222 C18.5468889,9.4124 18.1015556,9.4124 17.71,9.16084444 C17.3246667,8.94128889 16.7922222,8.80084444 16.7673333,9.4124 L16.5971111,13.4470667 L19.0468889,11.2248444 Z" id="Fill-102" fill="#FEFEFE"></path>
            <path d="M17.1415111,9.01 C16.9259556,9.01 16.8157333,9.14288889 16.8046222,9.41355556 L16.6379556,13.3588889 L19.0215111,11.1984444 C19.0357333,11.1851111 19.0566222,11.1837778 19.0712889,11.1984444 L21.3984,13.3575556 L21.2317333,9.41355556 C21.2135111,8.95666667 20.8526222,8.90377778 20.3446222,9.19355556 C19.9730667,9.43177778 19.5210667,9.46333333 19.0055111,9.282 C18.5468444,9.46333333 18.0632889,9.43177778 17.6904,9.19266667 C17.4846222,9.07533333 17.2895111,9.01 17.1415111,9.01 M16.5970667,13.4833333 C16.5930667,13.4833333 16.5872889,13.4824444 16.5824,13.4797778 C16.5677333,13.4735556 16.5601778,13.4593333 16.5606222,13.4446667 L16.7308444,9.41088889 C16.7459556,9.01844444 16.9632889,8.93622222 17.1415111,8.93622222 C17.3592889,8.93622222 17.6024,9.05711111 17.7290667,9.12955556 C18.0868444,9.358 18.5139556,9.38466667 19.0055111,9.21177778 C19.5566222,9.38466667 19.9521778,9.358 20.3068444,9.12955556 C20.4339556,9.05711111 20.6779556,8.93622222 20.8939556,8.93622222 C21.0730667,8.93622222 21.2895111,9.01844444 21.3064,9.41088889 L21.4761778,13.4446667 C21.4770667,13.4593333 21.4686222,13.4735556 21.4539556,13.4797778 C21.4419556,13.4855556 21.4246222,13.4846667 21.4135111,13.4735556 L19.0464,11.2757778 L16.6224,13.4735556 C16.6157333,13.4797778 16.6059556,13.4833333 16.5970667,13.4833333" id="Fill-103" fill="#EFC626"></path>
            <path d="M19.4092889,9.38693333 C19.5444,9.46693333 19.6857333,9.46693333 19.7697333,9.46693333 C19.4897333,9.27226667 19.4092889,8.7456 19.4341778,8.52426667 C19.4897333,8.07848889 19.3790667,7.82826667 19.1039556,7.77271111 C19.0479556,7.77271111 19.0181778,7.74337778 18.9079556,7.74337778 C18.8230667,7.71804444 18.7595111,7.79804444 18.7292889,7.8536 C18.6444,7.79804444 18.5728444,7.82826667 18.4919556,7.77271111 C18.4066222,7.74337778 18.2666222,7.77271111 18.2666222,7.96826667 L18.3208444,7.94515556 C18.3466222,7.94915556 18.3924,7.97671111 18.4484,8.00826667 C18.5208444,8.06382222 18.6266222,8.10382222 18.6564,8.29937778 C18.7124,8.71493333 18.6564,9.1056 18.2666222,9.46693333 C18.3506222,9.46693333 18.4919556,9.46693333 18.6266222,9.38693333 C18.5728444,9.46693333 18.5470667,9.49715556 18.4919556,9.55137778 C18.6564,9.52248889 18.7981778,9.46693333 18.8786222,9.33137778 C18.9079556,9.38693333 18.9884,9.46693333 19.0181778,9.52248889 C19.0479556,9.46693333 19.1288444,9.38693333 19.1586222,9.33137778 C19.2381778,9.46693333 19.3790667,9.52248889 19.5444,9.55137778 C19.4897333,9.49715556 19.4635111,9.46693333 19.4092889,9.38693333" id="Fill-104" fill="#FEFEFE"></path>
            <path d="M19.1566667,9.26128889 L19.1882222,9.31462222 C19.2402222,9.39995556 19.3175556,9.45684444 19.4442222,9.49328889 C19.4251111,9.46928889 19.4064444,9.44395556 19.3811111,9.40617778 L19.426,9.35684444 C19.5117778,9.40751111 19.5988889,9.42306667 19.6731111,9.42928889 C19.4388889,9.19106667 19.3762222,8.7284 19.3997778,8.52173333 C19.4535556,8.09151111 19.354,7.85817778 19.0966667,7.80662222 C19.0757778,7.81728889 19.054,7.80173333 19.0308889,7.79551111 C18.9997778,7.78706667 18.9637778,7.78084444 18.8993333,7.77728889 C18.814,7.77728889 18.7704444,7.84751111 18.7593333,7.87062222 L18.7406667,7.90306667 L18.71,7.88262222 C18.674,7.85817778 18.6397778,7.85373333 18.6033333,7.84751111 C18.5637778,7.8404 18.5184444,7.83417778 18.4713333,7.80173333 C18.4513333,7.79684444 18.3331111,7.76173333 18.306,7.91373333 L18.3068889,7.91373333 C18.354,7.91551111 18.3913333,7.93684444 18.4428889,7.96484444 L18.5055556,8.00573333 C18.5757778,8.05551111 18.6633333,8.11595556 18.6908889,8.29462222 C18.7348889,8.61995556 18.7331111,9.03773333 18.3531111,9.43017778 C18.4282222,9.42573333 18.5206667,9.40884444 18.6095556,9.35684444 L18.6562222,9.40617778 C18.63,9.44395556 18.6108889,9.46928889 18.5926667,9.49328889 C18.7188889,9.45551111 18.7966667,9.39995556 18.8477778,9.31462222 L18.8784444,9.26128889 L18.9077778,9.31462222 C18.9228889,9.34128889 18.9477778,9.3724 18.974,9.40484444 C18.9895556,9.42306667 19.0051111,9.44262222 19.018,9.45951111 C19.0317778,9.44262222 19.0468889,9.42306667 19.0615556,9.40484444 C19.0877778,9.3724 19.1135556,9.34128889 19.1282222,9.31462222 L19.1566667,9.26128889 Z M18.3882222,9.60662222 L18.4673333,9.52706667 C18.4891111,9.50662222 18.5055556,9.48973333 18.5206667,9.47151111 C18.4211111,9.50173333 18.3291111,9.50173333 18.2664444,9.50173333 L18.178,9.50173333 L18.2433333,9.44128889 C18.5744444,9.13551111 18.6882222,8.79506667 18.6224444,8.3044 C18.5993333,8.15551111 18.5322222,8.1084 18.4655556,8.06395556 L18.4264444,8.03462222 C18.3704444,8.0044 18.3308889,7.98173333 18.3157778,7.97906667 L18.2322222,8.02128889 L18.2322222,7.9684 C18.2322222,7.74617778 18.3944444,7.70128889 18.5028889,7.74128889 C18.5451111,7.76795556 18.5771111,7.7724 18.6144444,7.77862222 C18.6455556,7.78484444 18.6797778,7.78928889 18.7162222,7.80662222 C18.746,7.76262222 18.8006667,7.70351111 18.8753333,7.70351111 C18.9771111,7.7084 19.0175556,7.71951111 19.0495556,7.72928889 C19.07,7.73373333 19.0851111,7.73728889 19.1042222,7.73728889 C19.4064444,7.79817778 19.5268889,8.06395556 19.4686667,8.52928889 C19.4428889,8.75728889 19.5282222,9.2564 19.79,9.43773333 L19.8811111,9.50173333 L19.7695556,9.50173333 C19.7082222,9.50173333 19.6157778,9.50173333 19.5157778,9.47151111 C19.5313333,9.48973333 19.5473333,9.50662222 19.5695556,9.5284 L19.6482222,9.60573333 L19.538,9.58617778 C19.4122222,9.56351111 19.258,9.51995556 19.1588889,9.39284444 C19.146,9.41106667 19.13,9.43017778 19.1157778,9.4484 C19.0891111,9.48128889 19.0633333,9.5124 19.0486667,9.53906667 L19.018,9.59462222 L18.9882222,9.53906667 C18.974,9.5124 18.9468889,9.48128889 18.9211111,9.4484 C18.906,9.43017778 18.89,9.41106667 18.8775556,9.39284444 C18.778,9.51995556 18.6246667,9.56351111 18.498,9.58617778 L18.3882222,9.60662222 Z" id="Fill-105" fill="#EFC626"></path>
            <path d="M19.4262222,9.44857778 C19.4137778,9.44857778 19.3995556,9.44146667 19.3937778,9.42813333 C19.3111111,9.26991111 19.232,9.09346667 19.232,8.85657778 C19.232,8.81524444 19.3062222,8.81524444 19.3062222,8.85657778 C19.3062222,9.07657778 19.3782222,9.23702222 19.4586667,9.39524444 C19.4688889,9.41346667 19.4617778,9.43524444 19.4426667,9.44502222 C19.4377778,9.44857778 19.4324444,9.44857778 19.4262222,9.44857778" id="Fill-106" fill="#EFC626"></path>
            <path d="M19.1584,9.36871111 C19.1464,9.36871111 19.1339556,9.36293333 19.1264,9.35182222 C19.0686222,9.25893333 19.0361778,9.08826667 19.0361778,8.85671111 C19.0361778,8.81537778 19.1108444,8.81537778 19.1108444,8.85671111 C19.1108444,9.07048889 19.1392889,9.23226667 19.1899556,9.31093333 C19.2006222,9.32915556 19.1961778,9.35182222 19.1792889,9.36293333 C19.1721778,9.36648889 19.1655111,9.36871111 19.1584,9.36871111" id="Fill-107" fill="#EFC626"></path>
            <path d="M18.6102222,9.44857778 C18.604,9.44857778 18.5986667,9.44857778 18.5928889,9.44502222 C18.5746667,9.43524444 18.5666667,9.41346667 18.5773333,9.39524444 C18.6546667,9.24457778 18.7302222,9.0788 18.7302222,8.85657778 C18.7302222,8.81524444 18.8044444,8.81524444 18.8044444,8.85657778 C18.8044444,9.09702222 18.7248889,9.27124444 18.6426667,9.42946667 C18.6364444,9.44235556 18.6226667,9.44857778 18.6102222,9.44857778" id="Fill-108" fill="#EFC626"></path>
            <path d="M18.8784889,9.36871111 C18.8704889,9.36871111 18.8647111,9.36648889 18.8576,9.36293333 C18.8411556,9.35182222 18.8353778,9.32915556 18.8469333,9.31093333 C18.8980444,9.23226667 18.9256,9.07048889 18.9256,8.85671111 C18.9256,8.81537778 19.0002667,8.81537778 19.0002667,8.85671111 C19.0002667,9.08737778 18.9691556,9.25893333 18.9087111,9.35182222 C18.9020444,9.36293333 18.8896,9.36871111 18.8784889,9.36871111" id="Fill-109" fill="#EFC626"></path>
            <path d="M18.2847111,7.94293333 C18.3438222,7.94648889 18.3691556,7.96737778 18.4482667,8.00826667 C18.5029333,8.03715556 18.6269333,8.10382222 18.6562667,8.27404444 C18.6269333,8.1896 18.6820444,8.10382222 18.7429333,8.13404444 C18.6562667,7.93804444 18.3944889,7.88737778 18.2847111,7.94293333" id="Fill-110" fill="#EFC626"></path>
            <path d="M18.4110936,7.99126667 C18.4579173,7.99326667 18.5056774,8.01826667 18.5674846,8.05626667 L18.6517672,8.10526667 C18.7454144,8.15926667 18.9317725,8.26926667 19.0394669,8.50226667 C19.0507046,8.47526667 19.0619423,8.44826667 19.0825447,8.42926667 C19.1143847,8.38826667 19.1546531,8.36926667 19.1977308,8.36926667 C19.0759893,8.09226667 18.6592589,7.94526667 18.4110936,7.99126667 M19.0684976,8.77726667 C19.0544505,8.77726667 19.0404034,8.76626667 19.035721,8.75026667 C19.035721,8.75026667 19.0338481,8.74726667 19.0338481,8.74426667 C19.0301022,8.72826667 19.0216739,8.68726667 19.019801,8.67126667 L19.019801,8.66826667 C18.9402008,8.36126667 18.7220026,8.23326667 18.6152447,8.17326667 L18.5487551,8.09226667 L18.5318986,8.12426667 C18.4251407,8.06526667 18.3764441,8.03426667 18.2837333,8.02926667 C18.3324299,7.92126667 18.4139031,7.90426667 18.5075503,7.90426667 C18.7828734,7.90426667 19.1415424,8.05926667 19.2829498,8.40526667 C19.2885687,8.41526667 19.2623474,8.42326667 19.2557921,8.43426667 C19.2473639,8.44526667 19.2145873,8.44526667 19.2005402,8.44526667 L19.1977308,8.44526667 C19.1012741,8.52126667 19.0834811,8.58726667 19.0900364,8.65526667 C19.0900364,8.66526667 19.0891,8.67326667 19.0834811,8.67926667 C19.0947188,8.69826667 19.10502,8.72026667 19.1059565,8.73126667 C19.1097024,8.75026667 19.0984647,8.76926667 19.0797352,8.77426667 C19.0797352,8.77426667 19.0731799,8.77726667 19.0684976,8.77726667" id="Fill-111" fill="#EFC626"></path>
            <polygon id="Fill-112" fill="#EFC626" points="19.1288889 11.6671111 19.4635556 13.1955556 19.3533333 13.3057778 19.2382222 13.2213333 19.0475556 11.8582222 19.1288889 13.2213333 19.0182222 13.3613333 18.908 13.2213333 18.9884444 11.8582222 18.7968889 13.2213333 18.6817778 13.3057778 18.5728889 13.1955556 18.908 11.6671111"></polygon>
            <path d="M19.1295809,11.6742667 L18.9287342,11.6987111 L18.6065329,13.2027111 L18.7133062,13.2840444 L18.7913871,13.1956 L18.980945,11.8533778 L19.0453852,11.8591556 L19.1093551,11.8533778 L19.3120832,13.2173778 L19.4202676,13.2818222 L19.4936449,13.1742667 L19.1295809,11.6742667 Z M19.0453852,11.8809333 L18.9621303,13.2236 L19.0444445,13.3120444 L19.1366364,13.2018222 L19.0453852,11.8809333 Z M19.0453852,13.4120444 L18.9033344,13.2404889 L18.9395527,12.5844889 L18.8440682,13.2258222 L18.710484,13.3320444 L18.5500889,13.2173778 L18.8958086,11.6600444 L19.1625066,11.6360444 L19.5500889,13.1884889 L19.4245009,13.3284889 L19.2594022,13.2467111 L19.1549807,12.5756 L19.1944915,13.2200444 L19.0453852,13.4120444 Z" id="Fill-113" fill="#EFC626"></path>
            <path d="M17.0434222,9.27213333 L16.8785333,13.1956889 L16.5972,13.4472444 L16.7674222,9.41213333 C16.8478667,9.35657778 16.9878667,9.27213333 17.0434222,9.27213333" id="Fill-114" fill="#EFC626"></path>
            <path d="M17.3788889,9.5512 L17.238,12.8356444 L16.958,13.1218667 L17.1282222,9.3312 C17.1842222,9.38675556 17.3486667,9.52231111 17.3788889,9.5512" id="Fill-115" fill="#EFC626"></path>
            <path d="M17.6848889,9.80253333 L17.5746667,12.5407556 L17.3484444,12.7607556 L17.4897778,9.6372 C17.5453333,9.69275556 17.6546667,9.77275556 17.6848889,9.80253333" id="Fill-116" fill="#EFC626"></path>
            <path d="M18.0152,9.94271111 L17.9045333,12.2760444 L17.6849778,12.4551556 L17.7952,9.85826667 C17.8503111,9.8836 17.9600889,9.94271111 18.0152,9.94271111" id="Fill-117" fill="#EFC626"></path>
            <path d="M18.3212,9.94271111 L18.2403111,11.8880444 L18.0154222,12.1084889 L18.1007556,9.96848889 C18.1563111,9.96848889 18.2963111,9.96848889 18.3212,9.94271111" id="Fill-118" fill="#EFC626"></path>
            <path d="M20.9926222,9.27213333 L21.1588444,13.1956889 L21.4388444,13.4472444 L21.2686222,9.41213333 C21.1895111,9.35657778 21.0486222,9.27213333 20.9926222,9.27213333" id="Fill-119" fill="#EFC626"></path>
            <path d="M20.6575556,9.5512 L20.7975556,12.8356444 L21.0784444,13.0809778 L20.9077778,9.3312 C20.8522222,9.38675556 20.6868889,9.52231111 20.6575556,9.5512" id="Fill-120" fill="#EFC626"></path>
            <path d="M20.3524444,9.80253333 L20.4675556,12.5407556 L20.6871111,12.7194222 L20.5466667,9.6372 C20.4915556,9.69275556 20.3813333,9.77275556 20.3524444,9.80253333" id="Fill-121" fill="#EFC626"></path>
            <path d="M20.0208444,9.94271111 L20.1310667,12.2351556 L20.3524,12.4142667 L20.2412889,9.85826667 C20.1861778,9.8836 20.0759556,9.94271111 20.0208444,9.94271111" id="Fill-122" fill="#EFC626"></path>
            <path d="M19.7148444,9.94271111 L19.7952889,11.8880444 L20.0206222,12.1084889 L19.9357333,9.96848889 C19.8797333,9.96848889 19.7401778,9.96848889 19.7148444,9.94271111" id="Fill-123" fill="#EFC626"></path>
            <polygon id="Fill-124" fill="#FEFEFE" points="18.2664889 10.9965333 17.5989333 13.3609778 18.5176 13.5014222 18.9078222 11.7227556"></polygon>
            <path d="M17.6436444,13.3322667 L18.4889778,13.4616 L18.8734222,11.7153778 L18.2823111,11.0651556 L17.6436444,13.3322667 Z M18.5178667,13.5362667 C18.5178667,13.5362667 18.5138667,13.5362667 18.5120889,13.5353778 L17.5952,13.3949333 C17.5845333,13.3940444 17.5760889,13.3878222 17.5703111,13.3793778 C17.5649778,13.3709333 17.5636444,13.3611556 17.5667556,13.3513778 L18.2334222,10.9869333 C18.2360889,10.9736 18.2463111,10.9651556 18.2587556,10.9616 C18.2716444,10.9602667 18.2836444,10.9638222 18.2925333,10.9722667 L18.9334222,11.6998222 L18.5512,13.5087111 C18.5467556,13.5256 18.5338667,13.5362667 18.5178667,13.5362667 L18.5178667,13.5362667 Z" id="Fill-125" fill="#EFC626"></path>
            <polygon id="Fill-126" fill="#FEFEFE" points="19.7695111 10.9965333 20.4361778 13.3609778 19.5197333 13.5014222 19.1290667 11.7227556"></polygon>
            <path d="M19.7543556,11.0664 L19.1543556,11.7455111 L19.5468,13.4628444 L20.3925778,13.3321778 L19.7543556,11.0664 Z M19.5196889,13.5366222 C19.5028,13.5366222 19.4894667,13.5255111 19.4859111,13.5086222 L19.0952444,11.7299556 L19.7445778,10.9726222 C19.7525778,10.9641778 19.7659111,10.9601778 19.7788,10.9615111 C19.7899111,10.9650667 19.8005778,10.9748444 19.8045778,10.9868444 L20.4703556,13.3517333 C20.4725778,13.3610667 20.4712444,13.3708444 20.4659111,13.3792889 C20.4596889,13.3877333 20.4503556,13.3939556 20.4419111,13.3948444 L19.5250222,13.5352889 C19.5236889,13.5366222 19.5210222,13.5366222 19.5210222,13.5366222 L19.5196889,13.5366222 Z" id="Fill-127" fill="#EFC626"></path>
            <path d="M18.1267556,12.0344889 L18.1192,12.0344889 C18.1076444,12.0322667 18.0969778,12.0238222 18.0920889,12.0113778 L18.0120889,11.8171556 C18.0036444,11.7976 18.0120889,11.7771556 18.0316444,11.7687111 C18.0507556,11.7589333 18.0725333,11.7696 18.0800889,11.7878222 L18.1378667,11.9291556 L18.3494222,11.6971556 C18.3632,11.6816 18.3872,11.6807111 18.4023111,11.6949333 C18.4160889,11.7096 18.4183111,11.7322667 18.4045333,11.7469333 L18.1543111,12.0238222 C18.1463111,12.0309333 18.1369778,12.0344889 18.1267556,12.0344889" id="Fill-128" fill="#EFC626"></path>
            <path d="M18.4361778,12.2011556 C18.4339556,12.2011556 18.4308444,12.2002667 18.4272889,12.1989333 C18.4130667,12.1949333 18.4024,12.1829333 18.4001778,12.1673778 L18.3152889,11.3904889 C18.3130667,11.3709333 18.3277333,11.3518222 18.3472889,11.3504889 C18.3681778,11.3491556 18.3864,11.3624889 18.3881778,11.3829333 L18.4637333,12.0673778 L18.6819556,11.7793778 C18.6957333,11.7651556 18.7188444,11.7616 18.7352889,11.7736 C18.7512889,11.7856 18.7548444,11.8087111 18.7415111,11.8256 L18.4659556,12.1864889 C18.4597333,12.1949333 18.4490667,12.2011556 18.4361778,12.2011556" id="Fill-129" fill="#EFC626"></path>
            <path d="M18.7673778,12.3958222 C18.7527111,12.3958222 18.7380444,12.3869333 18.7331556,12.3727111 L18.5678222,11.9558222 C18.5602667,11.9380444 18.5696,11.9162667 18.5887111,11.9087111 C18.6073778,11.8989333 18.6287111,11.9100444 18.6362667,11.9291556 L18.8007111,12.3451556 C18.8096,12.3633778 18.8007111,12.3860444 18.7811556,12.3936 C18.7767111,12.3958222 18.7722667,12.3958222 18.7673778,12.3958222" id="Fill-130" fill="#EFC626"></path>
            <path d="M18.5177778,12.7317778 C18.5177778,12.7317778 18.5106667,12.7317778 18.5084444,12.7304444 C18.4964444,12.7282222 18.4862222,12.7184444 18.4813333,12.7064444 L18.368,12.3428889 L18.2728889,12.5166667 C18.2666667,12.5286667 18.2511111,12.5446667 18.2395556,12.5362222 C18.2244444,12.5362222 18.212,12.5264444 18.2066667,12.5131111 L18.1115556,12.286 L17.9044444,12.4717778 C17.8893333,12.4837778 17.8657778,12.4837778 17.8528889,12.4695556 C17.8395556,12.454 17.8413333,12.4295556 17.8564444,12.4162222 L18.1013333,12.1962222 C18.1111111,12.1877778 18.1217778,12.1833333 18.1342222,12.1877778 C18.1457778,12.1904444 18.1551111,12.1988889 18.1595556,12.2095556 L18.2453333,12.414 L18.344,12.2313333 C18.3506667,12.218 18.3706667,12.2122222 18.38,12.2122222 C18.3955556,12.2131111 18.408,12.2228889 18.4133333,12.2375556 L18.5342222,12.6255556 L18.716,12.4428889 C18.7306667,12.4282222 18.7542222,12.4282222 18.7688889,12.4428889 C18.7835556,12.4571111 18.7835556,12.4815556 18.7688889,12.4962222 L18.544,12.7211111 C18.5373333,12.7282222 18.5266667,12.7317778 18.5177778,12.7317778" id="Fill-131" fill="#EFC626"></path>
            <path d="M18.6011111,13.2332889 C18.5851111,13.2332889 18.5695556,13.2212889 18.566,13.2030667 L18.4966667,12.8612889 L18.326,13.0786222 C18.3175556,13.0892889 18.3037778,13.0955111 18.29,13.0919556 C18.2771111,13.0892889 18.2655556,13.0795111 18.2606667,13.0675111 L18.1722222,12.7968444 L18.0202222,12.9924 C18.0122222,13.0035111 17.9993333,13.0061778 17.9864444,13.0070667 C17.9731111,13.0061778 17.9624444,12.9977333 17.9571111,12.9839556 L17.7851111,12.5684 C17.7784444,12.5492889 17.786,12.5275111 17.8055556,12.5204 C17.8246667,12.5106222 17.8464444,12.5212889 17.8535556,12.5395111 L18.0006667,12.8972889 L18.1566667,12.6964 C18.1655556,12.6870667 18.1811111,12.6821778 18.1922222,12.6835111 C18.206,12.6857333 18.2171111,12.6955111 18.2215556,12.7075111 L18.31,12.9781778 L18.4886667,12.7510667 C18.498,12.7404 18.5108889,12.7341778 18.526,12.7390667 C18.5411111,12.7426222 18.5504444,12.7532889 18.554,12.7679556 L18.6393333,13.1884 C18.6424444,13.2088444 18.63,13.2284 18.6095556,13.2319556 C18.6073333,13.2319556 18.6042222,13.2332889 18.6042222,13.2332889 L18.6011111,13.2332889 Z" id="Fill-132" fill="#EFC626"></path>
            <path d="M18.3771556,13.5388444 C18.3771556,13.5388444 18.3704889,13.5379556 18.3673778,13.5379556 C18.3549333,13.5339556 18.3456,13.5241778 18.3416,13.5135111 L18.2571556,13.2548444 L18.1327111,13.4650667 C18.1251556,13.4775111 18.1109333,13.4904 18.0976,13.4832889 C18.0838222,13.4824 18.0709333,13.4739556 18.0664889,13.4592889 L17.9500444,13.1570667 L17.8247111,13.3286222 C17.8122667,13.3446222 17.7891556,13.3481778 17.7727111,13.3357333 C17.7567111,13.3237333 17.7527111,13.3006222 17.7651556,13.2850667 L17.9300444,13.0588444 C17.9389333,13.0472889 17.9544889,13.0432889 17.9651556,13.0446222 C17.9780444,13.0459556 17.9896,13.0544 17.9949333,13.0677333 L18.1078222,13.3610667 L18.2353778,13.1472889 C18.2411556,13.1339556 18.2544889,13.1281778 18.2700444,13.1290667 C18.2847111,13.1304 18.2971556,13.1415111 18.3016,13.1544 L18.3953778,13.4384 L18.5238222,13.3321778 C18.5398222,13.3201778 18.5633778,13.3215111 18.5758222,13.3384 C18.5887111,13.3530667 18.5873778,13.3757333 18.5713778,13.3904 L18.4007111,13.5304 C18.3936,13.5352889 18.3851556,13.5388444 18.3771556,13.5388444" id="Fill-133" fill="#EFC626"></path>
            <path d="M19.9097333,12.0344889 C19.8999556,12.0344889 19.8892889,12.0309333 19.8821778,12.0238222 L19.6328444,11.7469333 C19.6190667,11.7322667 19.6199556,11.7096 19.6355111,11.6949333 C19.6497333,11.6807111 19.6732889,11.6816 19.6875111,11.6971556 L19.8981778,11.9291556 L19.9568444,11.7878222 C19.9635111,11.7696 19.9866222,11.7589333 20.0052889,11.7687111 C20.0230667,11.7771556 20.0319556,11.7976 20.0248444,11.8171556 L19.9444,12.0113778 C19.9399556,12.0238222 19.9288444,12.0322667 19.9159556,12.0344889 L19.9097333,12.0344889 Z" id="Fill-134" fill="#EFC626"></path>
            <path d="M19.6041778,12.2011556 C19.5926222,12.2011556 19.5824,12.1962667 19.5757333,12.1864889 L19.2948444,11.8256 C19.2815111,11.8087111 19.2846222,11.7856 19.3015111,11.7736 C19.3170667,11.7602667 19.3401778,11.7638222 19.3535111,11.7793778 L19.5770667,12.0682667 L19.6486222,11.3829333 C19.6499556,11.3624889 19.6672889,11.3491556 19.6886222,11.3504889 C19.7081778,11.3518222 19.7241778,11.3700444 19.7224,11.3904889 L19.6415111,12.1673778 C19.6384,12.1820444 19.6295111,12.1949333 19.6144,12.1989333 C19.6112889,12.2002667 19.6077333,12.2011556 19.6077333,12.2011556 L19.6041778,12.2011556 Z" id="Fill-135" fill="#EFC626"></path>
            <path d="M19.2691111,12.3958222 C19.2637778,12.3958222 19.2597778,12.3958222 19.2548889,12.3936 C19.2366667,12.3860444 19.2273333,12.3633778 19.2344444,12.3451556 L19.3997778,11.9291556 C19.4077778,11.9100444 19.4282222,11.8989333 19.4477778,11.9087111 C19.4664444,11.9162667 19.4766667,11.9380444 19.4686667,11.9558222 L19.3033333,12.3727111 C19.2971111,12.3869333 19.2837778,12.3958222 19.2691111,12.3958222" id="Fill-136" fill="#EFC626"></path>
            <path d="M19.5195111,12.7317778 C19.5101778,12.7317778 19.5008444,12.7282222 19.4928444,12.7211111 L19.2724,12.4962222 C19.2577333,12.4806667 19.2577333,12.4571111 19.2724,12.4428889 C19.2870667,12.4282222 19.3106222,12.4282222 19.3252889,12.4428889 L19.4999556,12.6215556 L19.5941778,12.2397778 C19.5972889,12.2251111 19.6092889,12.2144444 19.6235111,12.2122222 C19.6377333,12.2095556 19.6532889,12.2171111 19.6612889,12.2291111 L19.7879556,12.4197778 L19.8755111,12.2095556 C19.8804,12.1988889 19.8901778,12.1904444 19.9017333,12.1877778 C19.9141778,12.1842222 19.9248444,12.1877778 19.9341778,12.1962222 L20.1857333,12.4162222 C20.1999556,12.4295556 20.2026222,12.4526667 20.1884,12.4682222 C20.1755111,12.4837778 20.1510667,12.4851111 20.1364,12.4717778 L19.9248444,12.286 L19.8297333,12.5131111 C19.8235111,12.5264444 19.8124,12.5348889 19.7986222,12.5362222 C19.7839556,12.5362222 19.7719556,12.5308889 19.7644,12.5188889 L19.6452889,12.3402222 L19.5564,12.7042222 C19.5528444,12.7157778 19.5430667,12.7268889 19.5288444,12.7304444 C19.5270667,12.7317778 19.5239556,12.7317778 19.5239556,12.7317778 L19.5195111,12.7317778 Z" id="Fill-137" fill="#EFC626"></path>
            <path d="M19.4340444,13.2332889 L19.4260444,13.2319556 C19.4064889,13.2284 19.3936,13.2088444 19.3976,13.1884 L19.4829333,12.7679556 C19.4860444,12.7532889 19.4962667,12.7426222 19.5118222,12.7390667 C19.5251556,12.7341778 19.5398222,12.7404 19.5487111,12.7519556 L19.7260444,12.9781778 L19.8144889,12.7075111 C19.8193778,12.6955111 19.8300444,12.6857333 19.8438222,12.6835111 C19.8576,12.6821778 19.8713778,12.6857333 19.8784889,12.6964 L20.0358222,12.8972889 L20.1824889,12.5395111 C20.1896,12.5212889 20.2118222,12.5106222 20.2304889,12.5204 C20.2491556,12.5275111 20.2584889,12.5492889 20.2509333,12.5684 L20.0807111,12.9839556 C20.0740444,12.9964 20.0633778,13.0061778 20.0509333,13.0070667 C20.0384889,13.0070667 20.0247111,13.0035111 20.0171556,12.9924 L19.8647111,12.7968444 L19.7753778,13.0675111 C19.7696,13.0795111 19.7598222,13.0892889 19.7460444,13.0919556 C19.7340444,13.0955111 19.7184889,13.0892889 19.7104889,13.0786222 L19.5398222,12.8612889 L19.4713778,13.2030667 C19.4673778,13.2212889 19.4509333,13.2332889 19.4340444,13.2332889" id="Fill-138" fill="#EFC626"></path>
            <path d="M19.6592889,13.5388444 C19.6512889,13.5388444 19.6437333,13.5352889 19.6357333,13.5304 L19.4664,13.3904 C19.4504,13.3757333 19.4477333,13.3530667 19.4606222,13.3384 C19.4739556,13.3215111 19.4979556,13.3201778 19.5130667,13.3321778 L19.6424,13.4384 L19.7352889,13.1544 C19.7401778,13.1415111 19.7521778,13.1304 19.7664,13.1290667 C19.7792889,13.1281778 19.7952889,13.1339556 19.8024,13.1472889 L19.9286222,13.3610667 L20.0415111,13.0677333 C20.0468444,13.0544 20.0575111,13.0459556 20.0712889,13.0446222 C20.0819556,13.0432889 20.0975111,13.0472889 20.1059556,13.0588444 L20.2717333,13.2850667 C20.2837333,13.3006222 20.2797333,13.3237333 20.2632889,13.3357333 C20.2468444,13.3481778 20.2232889,13.3446222 20.2117333,13.3286222 L20.0868444,13.1570667 L19.9699556,13.4592889 C19.9650667,13.4739556 19.9530667,13.4824 19.9392889,13.4832889 C19.9250667,13.4904 19.9108444,13.4775111 19.9032889,13.4650667 L19.7801778,13.2561778 L19.6948444,13.5135111 C19.6908444,13.5241778 19.6824,13.5339556 19.6699556,13.5379556 C19.6699556,13.5379556 19.6637333,13.5388444 19.6592889,13.5388444" id="Fill-139" fill="#EFC626"></path>
            <path d="M19.0182222,9.63715556 C19.2986667,9.85848889 19.6591111,9.96826667 20.076,9.94248889 C20.0462222,10.9153778 19.7693333,11.5824889 19.0182222,12.0829333 C18.2666667,11.5824889 17.9911111,10.9153778 17.96,9.94248889 C18.3773333,9.96826667 18.7431111,9.85848889 19.0182222,9.63715556" id="Fill-140" fill="#FEFEFE"></path>
            <path d="M17.9583111,9.96942222 C18.0183111,10.9529778 18.3276444,11.5849778 19.0183111,12.0525333 C19.7098667,11.5849778 20.0192,10.9529778 20.0498667,9.94275556 C20.0387556,9.97164444 20.0009778,9.97297778 19.9623111,9.97297778 C19.5956444,9.97297778 19.2640889,9.8632 19.0023111,9.65786667 C18.7778667,9.8632 18.4454222,9.97297778 18.0752,9.97297778 C18.0369778,9.97297778 17.9974222,9.97164444 17.9583111,9.96942222 M19.0183111,12.1094222 C19.0120889,12.1094222 19.0076444,12.1080889 19.0036444,12.1058667 C18.2867556,11.6272 17.9676444,10.9805333 17.9338667,9.94408889 C18.0009778,9.92008889 18.0369778,9.91875556 18.0752,9.92097778 C18.4338667,9.92097778 18.7543111,9.81608889 19.0023111,9.61653333 C19.3169778,9.83653333 19.6672,9.94542222 20.0743111,9.91742222 C20.0694222,10.9805333 19.7503111,11.6272 19.0325333,12.1058667 C19.0276444,12.1080889 19.0232,12.1094222 19.0183111,12.1094222" id="Fill-141" fill="#EFC626"></path>
            <path d="M19.0182222,11.9728889 C19.604,11.5826667 19.9355556,10.9155556 19.9662222,10.024 C19.604,10.024 19.2382222,9.94266667 19.0182222,9.74844444 C18.7675556,9.94266667 18.436,10.024 18.0448889,10.024 C18.1008889,10.9155556 18.436,11.5826667 19.0182222,11.9728889" id="Fill-142" fill="#EFC626"></path>
            <path d="M18.0820444,10.0575111 C18.1429333,10.9024 18.4656,11.5499556 19.0180444,11.9317333 C19.5784889,11.5477333 19.8936,10.9010667 19.9300444,10.0575111 C19.6873778,10.0539556 19.2838222,10.0117333 19.0171556,9.79306667 C18.7829333,9.96551111 18.4767111,10.0526222 18.0820444,10.0575111 M19.0180444,12.0081778 C19.0113778,12.0081778 19.0047111,12.0055111 18.9989333,12.0019556 C18.4078222,11.6041778 18.0664889,10.9201778 18.0113778,10.0250667 C18.0104889,10.0152889 18.0140444,10.0068444 18.0211556,9.99973333 C18.0269333,9.99217778 18.0362667,9.98862222 18.0447111,9.98862222 C18.4544889,9.98862222 18.7651556,9.90062222 18.9967111,9.72062222 C19.0096,9.71084444 19.0278222,9.71084444 19.0411556,9.72151111 C19.2327111,9.89173333 19.5696,9.98862222 19.9660444,9.98862222 C19.9749333,9.98862222 19.9842667,9.99217778 19.9904889,9.99973333 C19.9976,10.0055111 20.0007111,10.0152889 20.0007111,10.0250667 C19.9700444,10.9179556 19.6376,11.6019556 19.0371556,12.0019556 C19.0318222,12.0055111 19.0247111,12.0081778 19.0180444,12.0081778" id="Fill-143" fill="#EFC626"></path>
            <path d="M18.0707556,13.3611111 C18.2965333,13.3913333 18.5467556,13.4166667 18.7432,13.3913333 C18.8525333,13.3913333 18.9320889,13.5811111 18.7120889,13.6113333 C18.5178667,13.6366667 18.2116444,13.6113333 18.0445333,13.5811111 C17.9045333,13.5566667 17.5987556,13.5011111 17.4040889,13.4468889 C17.2089778,13.3611111 17.3485333,13.1957778 17.4587556,13.2211111 C17.6298667,13.2766667 17.8503111,13.3308889 18.0707556,13.3611111" id="Fill-144" fill="#FEFEFE"></path>
            <path d="M17.4457333,13.3378468 C17.3950667,13.3378468 17.3524,13.4067481 17.3439556,13.4793738 C17.3346222,13.5734148 17.3870667,13.6367295 17.4190667,13.6646624 C17.6110667,13.7782565 17.9186222,13.8946438 18.0519556,13.9449232 C18.2030667,14.0017202 18.5097333,14.0594483 18.7079556,14.0063757 C18.7781778,13.9858915 18.8177333,13.9281634 18.8150667,13.8443645 C18.8124,13.7754632 18.7812889,13.7000442 18.7430667,13.7000442 C18.5470667,13.7531168 18.2452889,13.6851466 18.0652889,13.6339362 C17.7959556,13.5575861 17.5630667,13.4160591 17.4479556,13.3378468 L17.4457333,13.3378468 Z M18.5230667,14.1814222 C18.3439556,14.1814222 18.1510667,14.1404539 18.0395111,14.0976233 C17.9057333,14.0464129 17.5924,13.9281634 17.3937333,13.811776 C17.2626222,13.6925954 17.2648444,13.5175489 17.2724,13.4495786 C17.2870667,13.2996718 17.3604,13.1814222 17.4364,13.1814222 C17.5835111,13.2670833 17.8110667,13.4067481 18.0764,13.4793738 C18.2506222,13.5305842 18.5341778,13.5985544 18.7377333,13.5454818 C18.8172889,13.5454818 18.8835111,13.6776978 18.8884,13.8341224 C18.8937333,13.9654073 18.8497333,14.122763 18.7172889,14.1609381 C18.6595111,14.1758356 18.5928444,14.1814222 18.5230667,14.1814222 L18.5230667,14.1814222 Z" id="Fill-145" fill="#EFC626"></path>
            <path d="M19.9661333,13.3611111 C19.7399111,13.3913333 19.4896889,13.4166667 19.2985778,13.3913333 C19.1830222,13.3913333 19.1043556,13.5811111 19.3243556,13.6113333 C19.5194667,13.6366667 19.8256889,13.6113333 19.9905778,13.5811111 C20.1310222,13.5566667 20.4363556,13.5011111 20.6328,13.4468889 C20.8274667,13.3611111 20.6870222,13.1957778 20.5772444,13.2211111 C20.4065778,13.2766667 20.1861333,13.3308889 19.9661333,13.3611111" id="Fill-146" fill="#FEFEFE"></path>
            <path d="M19.2947111,13.7000433 C19.2578222,13.7000433 19.2244889,13.7787565 19.2222667,13.8480991 C19.2196,13.9296235 19.2578222,13.9877213 19.3289333,14.0083367 C19.5253778,14.058938 19.8333778,14.0036514 19.9844889,13.9464906 C20.1164889,13.8958892 20.4262667,13.7787565 20.6227111,13.6616237 C20.6489333,13.6363231 20.7004889,13.5726029 20.6920444,13.4779596 C20.6849333,13.4048688 20.6404889,13.3355262 20.5996,13.3355262 C20.4729333,13.4142394 20.2404889,13.5566728 19.9711556,13.6335119 C19.7751556,13.6897356 19.4978222,13.7534558 19.2947111,13.7000433 M19.5138222,14.1845043 C19.4436,14.1845043 19.3764889,14.1788819 19.3191556,14.163889 C19.1853778,14.1254694 19.1431556,13.9699171 19.1480444,13.8368543 C19.1529333,13.6775538 19.2227111,13.5416798 19.2987111,13.5416798 C19.5147111,13.6007147 19.7858222,13.529498 19.9600444,13.4779596 C20.2244889,13.4048688 20.4520444,13.2643095 20.5653778,13.1884075 C20.6716,13.1593585 20.7484889,13.2971066 20.7644889,13.4470366 C20.7702667,13.5163791 20.7742667,13.6925468 20.6476,13.8068683 C20.4427111,13.9296235 20.1302667,14.0486303 19.9973778,14.1001687 C19.8844889,14.1432736 19.6929333,14.1845043 19.5138222,14.1845043" id="Fill-147" fill="#EFC626"></path>
            <path d="M17.3788889,13.2512889 C17.2086667,13.2210667 17.1282222,13.4170667 17.1842222,13.5268444 C17.2086667,13.4712889 17.3246667,13.4712889 17.3486667,13.4170667 C17.3788889,13.3308444 17.3246667,13.3308444 17.3788889,13.2512889" id="Fill-148" fill="#FEFEFE"></path>
            <path d="M17.5556921,13.3906889 C17.4366921,13.4176889 17.3836921,13.4826889 17.3556921,13.5266889 C17.3116921,13.5996889 17.2896921,13.6866889 17.2966921,13.7656889 C17.3316921,13.7466889 17.3696921,13.7326889 17.4056921,13.7196889 C17.4666921,13.6946889 17.5336921,13.6676889 17.5476921,13.6376889 C17.5686921,13.5776889 17.5626921,13.5476889 17.5556921,13.5106889 C17.5486921,13.4726889 17.5466921,13.4366889 17.5556921,13.3906889 M17.2516921,14.0046889 C17.2186921,14.0046889 17.1906921,13.9856889 17.1776921,13.9586889 C17.1006921,13.8066889 17.1186921,13.5996889 17.2146921,13.4396889 C17.3056921,13.2926889 17.4516921,13.2116889 17.6116921,13.2116889 C17.6416921,13.2136889 17.7106921,13.2386889 17.7206921,13.2656889 C17.7336921,13.2896889 17.7766921,13.3256889 17.7586921,13.3476889 C17.7106921,13.4206889 17.7126921,13.4416889 17.7206921,13.4826889 C17.7276921,13.5296889 17.7376921,13.5946889 17.7016921,13.7006889 C17.6596921,13.8016889 17.5556921,13.8386889 17.4686921,13.8746889 C17.4076921,13.8986889 17.3386921,13.9236889 17.3266921,13.9556889 C17.3146921,13.9856889 17.2926921,14.0106889 17.2516921,14.0046889" id="Fill-149" fill="#EFC626"></path>
            <path d="M18.0447111,13.7636889 C18.0447111,13.6534667 18.1562667,13.6668 18.1562667,13.5570222 C18.1562667,13.5014667 18.1269333,13.4170222 18.0709333,13.4170222 C18.0153778,13.4170222 17.9602667,13.4712444 17.9602667,13.5268 C17.9358222,13.6365778 18.0447111,13.6534667 18.0447111,13.7636889" id="Fill-150" fill="#FEFEFE"></path>
            <path d="M18.2592526,13.5453333 C18.1822526,13.5453333 18.0942526,13.6353333 18.0942526,13.7113333 C18.0702526,13.8223333 18.1082526,13.8683333 18.1632526,13.9403333 C18.1782526,13.9613333 18.1962526,13.9803333 18.2132526,14.0073333 C18.2322526,13.9853333 18.2522526,13.9663333 18.2722526,13.9473333 C18.3292526,13.8993333 18.3672526,13.8663333 18.3672526,13.7783333 C18.3672526,13.6703333 18.3092526,13.5453333 18.2592526,13.5453333 M18.2002526,14.3283333 C18.1562526,14.3283333 18.1202526,14.2903333 18.1202526,14.2443333 C18.1202526,14.1573333 18.0802526,14.1053333 18.0302526,14.0433333 C17.9692526,13.9613333 17.8932526,13.8633333 17.9292526,13.6923333 C17.9262526,13.5393333 18.0882526,13.3793333 18.2592526,13.3793333 C18.4462526,13.3793333 18.5352526,13.6163333 18.5352526,13.7783333 C18.5352526,13.9403333 18.4462526,14.0183333 18.3812526,14.0723333 C18.3242526,14.1243333 18.2842526,14.1573333 18.2842526,14.2443333 C18.2842526,14.2903333 18.2492526,14.3283333 18.2002526,14.3283333" id="Fill-151" fill="#EFC626"></path>
            <path d="M18.8394222,13.4470667 C19.0047556,13.4470667 18.9883111,13.6670667 18.9078667,13.7768444 C18.9078667,13.6968444 18.7674222,13.6670667 18.7674222,13.6115111 C18.7674222,13.5266222 18.8936444,13.5266222 18.8394222,13.4470667" id="Fill-152" fill="#FEFEFE"></path>
            <path d="M19.0862222,13.6043111 C19.0752222,13.6743111 19.0172222,13.7243111 18.9782222,13.7533111 C18.9272222,13.7973111 18.8982222,13.8213111 18.8982222,13.8653111 C18.9032222,13.8843111 18.9622222,13.9253111 18.9952222,13.9463111 C19.0422222,13.9763111 19.0922222,14.0123111 19.1342222,14.0553111 C19.1852222,13.9193111 19.1942222,13.7643111 19.1492222,13.6723111 C19.1322222,13.6423111 19.1132222,13.6203111 19.0862222,13.6043111 M19.1302222,14.3223111 C19.1212222,14.3223111 19.1102222,14.3193111 19.1042222,14.3163111 C19.0682222,14.3053111 19.0462222,14.2723111 19.0462222,14.2373111 C19.0462222,14.1833111 18.9732222,14.1343111 18.9032222,14.0853111 C18.8172222,14.0283111 18.7302222,13.9653111 18.7302222,13.8653111 C18.7302222,13.7403111 18.8152222,13.6723111 18.8692222,13.6253111 C18.8522222,13.6013111 18.8692222,13.5253111 18.8832222,13.4953111 C18.8982222,13.4683111 18.9442222,13.4083111 18.9762222,13.4083111 C19.1212222,13.4083111 19.2352222,13.4763111 19.2962222,13.5963111 C19.3992222,13.8023111 19.3272222,14.1093111 19.1962222,14.2873111 C19.1812222,14.3083111 19.1552222,14.3223111 19.1302222,14.3223111" id="Fill-153" fill="#EFC626"></path>
            <path d="M20.6575556,13.2512889 C20.8277778,13.2210667 20.9077778,13.4170667 20.8522222,13.5268444 C20.8277778,13.4712889 20.7113333,13.4712889 20.6868889,13.4170667 C20.6575556,13.3308444 20.7113333,13.3308444 20.6575556,13.2512889" id="Fill-154" fill="#FEFEFE"></path>
            <path d="M20.8377005,13.3794522 C20.8497005,13.4284522 20.8447005,13.4664522 20.8377005,13.5074522 C20.8307005,13.5454522 20.8247005,13.5754522 20.8517005,13.6404522 C20.8597005,13.6654522 20.9287005,13.6914522 20.9867005,13.7164522 C21.0257005,13.7304522 21.0617005,13.7434522 21.0997005,13.7624522 C21.1047005,13.6844522 21.0817005,13.5964522 21.0387005,13.5234522 C21.0067005,13.4744522 20.9437005,13.3984522 20.8377005,13.3794522 M21.1427005,14.0024522 C21.1047005,13.9934522 21.0797005,13.9834522 21.0667005,13.9534522 C21.0527005,13.9204522 20.9847005,13.8964522 20.9257005,13.8714522 C20.8377005,13.8364522 20.7357005,13.7984522 20.6937005,13.7064522 C20.6537005,13.5914522 20.6657005,13.5264522 20.6747005,13.4804522 C20.6817005,13.4394522 20.6847005,13.4174522 20.6367005,13.3444522 C20.6187005,13.3224522 20.6167005,13.2924522 20.6257005,13.2654522 C20.6387005,13.2374522 20.6607005,13.2214522 20.6887005,13.2164522 C20.9577005,13.1974522 21.0907005,13.2924522 21.1797005,13.4364522 C21.2757005,13.5964522 21.2927005,13.8034522 21.2157005,13.9564522 C21.2037005,13.9834522 21.1747005,14.0024522 21.1427005,14.0024522" id="Fill-155" fill="#EFC626"></path>
            <path d="M19.9904444,13.7636889 C19.9904444,13.6534667 19.8797778,13.6668 19.8797778,13.5570222 C19.8797778,13.5014667 19.9095556,13.4170222 19.966,13.4170222 C20.0206667,13.4170222 20.0757778,13.4712444 20.0757778,13.5268 C20.1006667,13.6365778 19.9904444,13.6534667 19.9904444,13.7636889" id="Fill-156" fill="#FEFEFE"></path>
            <path d="M20.1200222,13.5453333 C20.0680222,13.5453333 20.0100222,13.6703333 20.0100222,13.7783333 C20.0100222,13.8663333 20.0480222,13.8993333 20.1060222,13.9473333 C20.1250222,13.9663333 20.1450222,13.9853333 20.1660222,14.0073333 C20.1830222,13.9803333 20.1990222,13.9613333 20.2150222,13.9403333 C20.2710222,13.8683333 20.3070222,13.8223333 20.2860222,13.7303333 C20.2830222,13.6353333 20.1980222,13.5453333 20.1200222,13.5453333 M20.1750222,14.3283333 C20.1290222,14.3283333 20.0930222,14.2903333 20.0930222,14.2443333 C20.0930222,14.1573333 20.0550222,14.1243333 19.9960222,14.0723333 C19.9300222,14.0183333 19.8430222,13.9403333 19.8430222,13.7783333 C19.8430222,13.6163333 19.9300222,13.3793333 20.1200222,13.3793333 C20.2900222,13.3793333 20.4510222,13.5393333 20.4510222,13.7113333 C20.4870222,13.8633333 20.4100222,13.9613333 20.3460222,14.0433333 C20.2970222,14.1053333 20.2590222,14.1573333 20.2590222,14.2443333 C20.2590222,14.2903333 20.2220222,14.3283333 20.1750222,14.3283333" id="Fill-157" fill="#EFC626"></path>
            <path d="M19.1961778,13.4470667 C19.0317333,13.4470667 19.0477333,13.6670667 19.1290667,13.7768444 C19.1290667,13.6968444 19.2690667,13.6670667 19.2690667,13.6115111 C19.2690667,13.5266222 19.1415111,13.5266222 19.1961778,13.4470667" id="Fill-158" fill="#FEFEFE"></path>
            <path d="M19.2919955,13.6043111 C19.2659955,13.6203111 19.2429955,13.6423111 19.2299955,13.6723111 C19.1819955,13.7643111 19.1929955,13.9193111 19.2429955,14.0553111 C19.2849955,14.0123111 19.3359955,13.9763111 19.3809955,13.9463111 C19.4159955,13.9253111 19.4739955,13.8843111 19.4799955,13.8653111 C19.4799955,13.8213111 19.4509955,13.7973111 19.3999955,13.7533111 C19.3619955,13.7243111 19.3029955,13.6743111 19.2919955,13.6043111 L19.2919955,13.6043111 Z M19.2489955,14.3223111 C19.2229955,14.3223111 19.1969955,14.3083111 19.1819955,14.2873111 C19.0519955,14.1093111 18.9779955,13.8023111 19.0819955,13.5963111 C19.1419955,13.4763111 19.2559955,13.4083111 19.3999955,13.4083111 C19.4359955,13.4083111 19.4599955,13.4273111 19.4739955,13.4553111 C19.4909955,13.4813111 19.4889955,13.5143111 19.4729955,13.5423111 C19.5629955,13.6723111 19.6479955,13.7403111 19.6479955,13.8653111 C19.6479955,13.9653111 19.5579955,14.0283111 19.4739955,14.0853111 C19.4019955,14.1343111 19.3309955,14.1833111 19.3309955,14.2373111 C19.3309955,14.2723111 19.3089955,14.3053111 19.2739955,14.3163111 C19.2659955,14.3193111 19.2579955,14.3223111 19.2579955,14.3223111 L19.2489955,14.3223111 Z" id="Fill-159" fill="#EFC626"></path>
            <path d="M17.4340444,13.3055556 C17.4896,13.3055556 17.5744889,13.3308889 17.5989333,13.3611111 L17.4340444,13.3055556 Z" id="Fill-160" fill="#FEFEFE"></path>
            <path d="M17.5989778,13.3878222 C17.5989778,13.3878222 17.5940889,13.3869333 17.5918667,13.3856 L17.4260889,13.3309333 C17.4140889,13.3260444 17.4069778,13.3140444 17.4074222,13.3020444 C17.4105333,13.2900444 17.4216444,13.2802667 17.4340889,13.2802667 C17.4896444,13.2802667 17.5874222,13.3047111 17.6203111,13.3442667 C17.6274222,13.3527111 17.6274222,13.3660444 17.6216444,13.3758222 C17.6158667,13.3829333 17.6078667,13.3878222 17.5989778,13.3878222" id="Fill-161" fill="#EFC626"></path>
            <path d="M17.7100889,13.3915111 C17.7412,13.3915111 17.8500889,13.4168444 17.9043111,13.4470667 L17.7100889,13.3915111 Z" id="Fill-162" fill="#FEFEFE"></path>
            <path d="M17.9045333,13.4724444 C17.9045333,13.4724444 17.9000889,13.4724444 17.8987556,13.4711111 L17.7040889,13.4168889 C17.6907556,13.4133333 17.6823111,13.4008889 17.6849778,13.388 C17.6907556,13.3408889 17.8383111,13.3795556 17.9174222,13.4231111 C17.9303111,13.4302222 17.9338667,13.4435556 17.9303111,13.4555556 C17.9263111,13.4662222 17.9156444,13.4724444 17.9045333,13.4724444" id="Fill-163" fill="#EFC626"></path>
            <path d="M18.7122222,13.5012889 C18.6562222,13.5012889 18.5468889,13.5012889 18.518,13.5266222 L18.7122222,13.5012889 Z" id="Fill-164" fill="#FEFEFE"></path>
            <path d="M18.5177778,13.5520889 C18.5071111,13.5520889 18.4977778,13.5458667 18.4928889,13.5378667 C18.4893333,13.5267556 18.4915556,13.5147556 18.5008889,13.5076444 C18.5311111,13.4809778 18.604,13.4760889 18.712,13.4760889 C18.7257778,13.4760889 18.7377778,13.4858667 18.7377778,13.4992 C18.74,13.5138667 18.7293333,13.5254222 18.716,13.5267556 L18.5208889,13.5520889 L18.5186667,13.5520889 L18.5177778,13.5520889 Z" id="Fill-165" fill="#EFC626"></path>
            <path d="M18.4066667,13.5012889 C18.3773333,13.4710667 18.2666667,13.4710667 18.212,13.5012889 L18.4066667,13.5012889 Z" id="Fill-166" fill="#FEFEFE"></path>
            <path d="M18.4066667,13.528 L18.212,13.528 C18.1986667,13.528 18.1884444,13.5195556 18.1857778,13.5088889 C18.1831111,13.4964444 18.1884444,13.4844444 18.1982222,13.4786667 C18.2484444,13.4533333 18.3595556,13.4155556 18.4253333,13.4831111 C18.4328889,13.4906667 18.4351111,13.5026667 18.4311111,13.5111111 C18.4275556,13.5204444 18.4173333,13.528 18.4066667,13.528" id="Fill-167" fill="#EFC626"></path>
            <path d="M20.6024444,13.3055556 C20.5464444,13.3055556 20.4673333,13.3308889 20.4362222,13.3611111 L20.6024444,13.3055556 Z" id="Fill-168" fill="#FEFEFE"></path>
            <path d="M20.4361778,13.3878222 C20.4272889,13.3878222 20.4188444,13.3820444 20.4144,13.3744889 C20.4081778,13.3647111 20.4095111,13.3504889 20.4188444,13.3420444 C20.4566222,13.3056 20.5441778,13.2802667 20.6024,13.2802667 C20.6157333,13.2802667 20.6259556,13.2900444 20.6286222,13.3020444 C20.6304,13.3140444 20.6228444,13.3260444 20.6112889,13.3309333 L20.4455111,13.3856 C20.4428444,13.3869333 20.4392889,13.3878222 20.4392889,13.3878222 L20.4361778,13.3878222 Z" id="Fill-169" fill="#EFC626"></path>
            <path d="M20.3268444,13.3915111 C20.2961778,13.3915111 20.1864,13.4168444 20.1312889,13.4470667 L20.3268444,13.3915111 Z" id="Fill-170" fill="#FEFEFE"></path>
            <path d="M20.1310667,13.4724444 C20.1212889,13.4724444 20.1101778,13.4662222 20.1066222,13.4555556 C20.1008444,13.4435556 20.1066222,13.4288889 20.1190667,13.4231111 C20.2026222,13.3782222 20.3452889,13.3408889 20.3532889,13.388 C20.3541778,13.4008889 20.3470667,13.4133333 20.3332889,13.4168889 L20.1381778,13.4711111 C20.1355111,13.4724444 20.1332889,13.4724444 20.1332889,13.4724444 L20.1310667,13.4724444 Z" id="Fill-171" fill="#EFC626"></path>
            <path d="M19.3242222,13.5012889 C19.3788889,13.5012889 19.4895556,13.5012889 19.5193333,13.5266222 L19.3242222,13.5012889 Z" id="Fill-172" fill="#FEFEFE"></path>
            <path d="M19.5195111,13.5520889 L19.5155111,13.5520889 L19.3208444,13.5267556 C19.3066222,13.5254222 19.2968444,13.5138667 19.2972889,13.4992 C19.2986222,13.4858667 19.3097333,13.4760889 19.3244,13.4760889 C19.4324,13.4760889 19.5061778,13.4809778 19.5372889,13.5076444 C19.5461778,13.5147556 19.5470667,13.5267556 19.5435111,13.5378667 C19.5399556,13.5458667 19.5297333,13.5520889 19.5195111,13.5520889" id="Fill-173" fill="#EFC626"></path>
            <path d="M19.6293333,13.5012889 C19.6591111,13.4710667 19.7693333,13.4710667 19.8253333,13.5012889 L19.6293333,13.5012889 Z" id="Fill-174" fill="#FEFEFE"></path>
            <path d="M19.8255111,13.528 L19.6295111,13.528 C19.6188444,13.528 19.6095111,13.5204444 19.6055111,13.5111111 C19.6010667,13.5013333 19.6041778,13.4906667 19.6112889,13.4822222 C19.6806222,13.4168889 19.7899556,13.4533333 19.8379556,13.4786667 C19.8486222,13.4844444 19.8535111,13.4964444 19.8508444,13.5088889 C19.8472889,13.5195556 19.8379556,13.528 19.8255111,13.528" id="Fill-175" fill="#EFC626"></path>
            <path d="M19.4092889,8.02386667 C19.3532889,7.88386667 19.2546222,7.77275556 19.1186222,7.74697778 C19.0492889,7.72697778 18.9768444,7.73142222 18.8972889,7.73142222 C18.8115111,7.70742222 18.7430667,7.79808889 18.7124,7.85364444 C18.7968444,7.91364444 18.8172889,7.97453333 18.8604,7.99364444 C18.9452889,8.02386667 18.9884,7.99364444 19.0732889,7.91364444 C19.1586222,7.82831111 19.3532889,7.85364444 19.4092889,8.02386667" id="Fill-176" fill="#EFC626"></path>
            <path d="M18.9677269,7.79788889 C18.8516838,7.79788889 18.7806629,7.92888889 18.7400795,8.04788889 C18.7971499,8.07488889 18.8370991,8.14888889 18.8688049,8.20888889 C18.8941695,8.25488889 18.9138271,8.29288889 18.9366553,8.31188889 C19.0406502,8.36588889 19.0882088,8.32488889 19.2150319,8.13788889 C19.3025398,7.99688889 19.4788239,7.98788889 19.5929647,8.10788889 C19.4991156,7.96388889 19.4001936,7.86288889 19.292394,7.83088889 C19.226446,7.80088889 19.1624003,7.79788889 19.1008911,7.79788889 L18.9804092,7.79788889 L18.9677269,7.79788889 Z M19.0114809,8.41288889 C18.9829457,8.41288889 18.9537764,8.40188889 18.9189,8.38188889 C18.8833896,8.36088889 18.8592932,8.31188889 18.8301239,8.25688889 C18.7990522,8.19988889 18.76481,8.13188889 18.7026667,8.06188889 C18.7191537,7.94188889 18.8098322,7.71088889 18.9391917,7.71088889 L19.0425525,7.71888889 C19.1687415,7.70588889 19.2353236,7.72488889 19.3050763,7.75488889 C19.4667757,7.80288889 19.6107199,7.99388889 19.7026667,8.28988889 C19.5473084,8.11888889 19.3494644,8.03388889 19.2492741,8.19488889 C19.1598639,8.32488889 19.0958182,8.41288889 19.0114809,8.41288889 L19.0114809,8.41288889 Z" id="Fill-177" fill="#EFC626"></path>
            <path d="M18.8784889,7.8088 C18.8229333,7.8088 18.8229333,7.89324444 18.8784889,7.89324444 C18.9322667,7.89324444 18.9322667,7.8088 18.8784889,7.8088" id="Fill-178" fill="#FEFEFE"></path>
            <path d="M18.8784889,7.93097778 C18.8331556,7.93097778 18.7993778,7.89586667 18.7993778,7.85097778 C18.7993778,7.76075556 18.9553778,7.76075556 18.9553778,7.85097778 C18.9553778,7.89586667 18.9229333,7.93097778 18.8784889,7.93097778" id="Fill-179" fill="#FEFEFE"></path>
            <path d="M19.3593778,9.93315556 L19.3593778,11.6829333 C19.2580444,11.7927111 19.1442667,11.8882667 19.0180444,11.9727111 C18.8936,11.8882667 18.7780444,11.7927111 18.6771556,11.6829333 L18.6771556,9.92826667 C18.8024889,9.88382222 18.9180444,9.82337778 19.0180444,9.74826667 C19.1136,9.82826667 19.2287111,9.88826667 19.3593778,9.93315556" id="Fill-180" fill="#FEFEFE"></path>
        </g>
    </g>
</svg>